<svg width="18" height="28" viewBox="0 0 18 28" fill="none" xmlns="http://www.w3.org/2000/svg">
<g clip-path="url(#clip0_101_91)">
<path d="M16.5 16.2105V14.7368H15V13.2632H13.5V11.7895H12V10.3158H10.5V8.8421H9V7.36842H7.5V5.89474H6V4.42105H4.5V2.94737H3V1.47368H1.5V0H0V25.0526H3V23.5789H4.5V22.1053H6V20.6316H7.5V23.5789H9V26.5263H10.5V28H13.5V26.5263H15V23.5789H13.5V20.6316H12V19.1579H18V16.2105H16.5Z" fill="black"/>
<path d="M1.5 0H0V25.0526H1.5V0Z" fill="black"/>
<path d="M3 1.47363H1.5V2.94732H3V1.47363Z" fill="black"/>
<path d="M4.5 2.94727H3V4.42095H4.5V2.94727Z" fill="black"/>
<path d="M6 4.4209H4.5V5.89458H6V4.4209Z" fill="black"/>
<path d="M7.5 5.89453H6V7.36822H7.5V5.89453Z" fill="black"/>
<path d="M9 7.36865H7.5V8.84234H9V7.36865Z" fill="black"/>
<path d="M10.5 8.84229H9V10.316H10.5V8.84229Z" fill="black"/>
<path d="M12 10.3159H10.5V11.7896H12V10.3159Z" fill="black"/>
<path d="M13.5 11.7896H12V13.2632H13.5V11.7896Z" fill="black"/>
<path d="M15 13.2632H13.5V14.7369H15V13.2632Z" fill="black"/>
<path d="M16.5 14.7368H15V16.2105H16.5V14.7368Z" fill="black"/>
<path d="M18 16.2104H16.5V17.6841H18V16.2104Z" fill="black"/>
<path d="M18 17.6841H10.5V19.1578H18V17.6841Z" fill="black"/>
<path d="M12 19.1577H10.5V20.6314H12V19.1577Z" fill="black"/>
<path d="M7.5 19.1577H6V20.6314H7.5V19.1577Z" fill="black"/>
<path d="M9 20.6313H7.5V23.5787H9V20.6313Z" fill="black"/>
<path d="M10.5 23.5791H9V26.5265H10.5V23.5791Z" fill="black"/>
<path d="M13.5 26.5264H10.5V28.0001H13.5V26.5264Z" fill="black"/>
<path d="M13.5 20.6313H12V23.5787H13.5V20.6313Z" fill="black"/>
<path d="M15 23.5791H13.5V26.5265H15V23.5791Z" fill="black"/>
<path d="M6 20.6313H4.5V22.105H6V20.6313Z" fill="black"/>
<path d="M4.5 22.1055H3V23.5792H4.5V22.1055Z" fill="black"/>
<path d="M3 23.5791H1.5V25.0528H3V23.5791Z" fill="black"/>
</g>
<defs>
<clipPath id="clip0_101_91">
<rect width="18" height="28" fill="white"/>
</clipPath>
</defs>
</svg>
