<svg width="60" height="93" viewBox="0 0 22 33" fill="none" xmlns="http://www.w3.org/2000/svg">
<g clip-path="url(#clip0_103_149)">
<path d="M19.5161 19.1053V17.3684H17.7419V15.6316H15.9677V13.8947H14.1935V12.1579H12.4194V10.4211H10.6452V8.68421H8.87097V6.94737H7.09677V5.21053H5.32258V3.47368H3.54839V1.73684H1.77419V0H0V29.5263H3.54839V27.7895H5.32258V26.0526H7.09677V24.3158H8.87097V27.7895H10.6452V31.2632H12.4194V33H15.9677V31.2632H17.7419V27.7895H15.9677V24.3158H14.1935V22.5789H21.2903V19.1053H19.5161Z" fill="black"/>
<path d="M1.77419 0H0V29.5263H1.77419V0Z" fill="black"/>
<path d="M3.54836 1.73682H1.77417V3.47366H3.54836V1.73682Z" fill="black"/>
<path d="M5.32259 3.47363H3.5484V5.21047H5.32259V3.47363Z" fill="black"/>
<path d="M7.09676 5.21045H5.32257V6.94729H7.09676V5.21045Z" fill="black"/>
<path d="M8.871 6.94727H7.0968V8.68411H8.871V6.94727Z" fill="black"/>
<path d="M10.6452 8.68408H8.87097V10.4209H10.6452V8.68408Z" fill="black"/>
<path d="M12.4193 10.4209H10.6451V12.1577H12.4193V10.4209Z" fill="black"/>
<path d="M14.1936 12.1577H12.4194V13.8946H14.1936V12.1577Z" fill="black"/>
<path d="M15.9677 13.8945H14.1935V15.6314H15.9677V13.8945Z" fill="black"/>
<path d="M17.742 15.6313H15.9678V17.3682H17.742V15.6313Z" fill="black"/>
<path d="M19.5161 17.3687H17.7419V19.1055H19.5161V17.3687Z" fill="black"/>
<path d="M21.2903 19.1055H19.5161V20.8423H21.2903V19.1055Z" fill="black"/>
<path d="M21.2903 20.8423H12.4194V22.5791H21.2903V20.8423Z" fill="black"/>
<path d="M14.1936 22.5791H12.4194V24.3159H14.1936V22.5791Z" fill="black"/>
<path d="M8.871 22.5791H7.0968V24.3159H8.871V22.5791Z" fill="black"/>
<path d="M10.6452 24.3159H8.87097V27.7896H10.6452V24.3159Z" fill="black"/>
<path d="M12.4193 27.7896H10.6451V31.2632H12.4193V27.7896Z" fill="black"/>
<path d="M15.9678 31.2632H12.4194V33H15.9678V31.2632Z" fill="black"/>
<path d="M15.9677 24.3159H14.1935V27.7896H15.9677V24.3159Z" fill="black"/>
<path d="M17.742 27.7896H15.9678V31.2632H17.742V27.7896Z" fill="black"/>
<path d="M7.09676 24.3159H5.32257V26.0528H7.09676V24.3159Z" fill="black"/>
<path d="M5.32259 26.0527H3.5484V27.7896H5.32259V26.0527Z" fill="black"/>
<path d="M3.54836 27.7896H1.77417V29.5264H3.54836V27.7896Z" fill="black"/>
<rect x="15.6129" y="30.8711" width="2.12903" height="2.12903" fill="black"/>
</g>
<defs>
<clipPath id="clip0_103_149">
<rect width="60" height="93" fill="white"/>
</clipPath>
</defs>
</svg>
